<svg xmlns="http://www.w3.org/2000/svg" class="kb-sprite mood-wink is-idle is-quiet" viewBox="0 0 120 112" width="360" height="336" role="img" aria-label="Kibu is idle" style="--kb-accent:#d4ff3a"><defs><linearGradient id="_R_0_-shell" x1="0" y1="0" x2="0" y2="1"><stop stop-color="#2a2b2f"></stop><stop offset=".5" stop-color="#141518"></stop><stop offset="1" stop-color="#0a0a0c"></stop></linearGradient><linearGradient id="_R_0_-rim" x1="0" y1="0" x2="0" y2="1"><stop stop-color="#ffffff" stop-opacity=".38"></stop><stop offset=".35" stop-color="#ffffff" stop-opacity=".06"></stop><stop offset="1" stop-color="#ffffff" stop-opacity=".12"></stop></linearGradient><radialGradient id="_R_0_-glow"><stop stop-color="#d4ff3a" stop-opacity=".55"></stop><stop offset="1" stop-color="#d4ff3a" stop-opacity="0"></stop></radialGradient><filter id="_R_0_-bloom" x="-20%" y="-20%" width="140%" height="140%"><feGaussianBlur stdDeviation="1.1" result="b"></feGaussianBlur><feMerge><feMergeNode in="b"></feMergeNode><feMergeNode in="SourceGraphic"></feMergeNode></feMerge></filter></defs><g class="kb-body"><rect class="kb-shell" x="6" y="8" width="108" height="88" rx="34" fill="url(#_R_0_-shell)"></rect><rect x="6.5" y="8.5" width="107" height="87" rx="33.5" fill="none" stroke="url(#_R_0_-rim)"></rect><path d="M30 13.5Q60 9 90 13.5" stroke="#fff" stroke-opacity=".22" stroke-width="2" stroke-linecap="round" fill="none"></path><g filter="url(#_R_0_-bloom)"><circle cx="20.800000000000004" cy="24" r="1.35" class="kb-dot" fill="#ffffff" opacity="0.07"></circle><circle cx="26.400000000000006" cy="24" r="1.35" class="kb-dot" fill="#ffffff" opacity="0.07"></circle><circle cx="32" cy="24" r="1.35" class="kb-dot" fill="#ffffff" opacity="0.07"></circle><circle cx="37.6" cy="24" r="1.35" class="kb-dot" fill="#ffffff" opacity="0.07"></circle><circle cx="43.2" cy="24" r="1.35" class="kb-dot" fill="#ffffff" opacity="0.07"></circle><circle cx="48.800000000000004" cy="24" r="1.35" class="kb-dot" fill="#ffffff" opacity="0.07"></circle><circle cx="54.4" cy="24" r="1.35" class="kb-dot" fill="#ffffff" opacity="0.07"></circle><circle cx="60" cy="24" r="1.35" class="kb-dot" fill="#ffffff" opacity="0.07"></circle><circle cx="65.6" cy="24" r="1.35" class="kb-dot" fill="#ffffff" opacity="0.07"></circle><circle cx="71.2" cy="24" r="1.35" class="kb-dot" fill="#ffffff" opacity="0.07"></circle><circle cx="76.80000000000001" cy="24" r="1.35" class="kb-dot" fill="#ffffff" opacity="0.07"></circle><circle cx="82.4" cy="24" r="1.35" class="kb-dot" fill="#ffffff" opacity="0.07"></circle><circle cx="88" cy="24" r="1.35" class="kb-dot" fill="#ffffff" opacity="0.07"></circle><circle cx="93.6" cy="24" r="1.35" class="kb-dot" fill="#ffffff" opacity="0.07"></circle><circle cx="99.19999999999999" cy="24" r="1.35" class="kb-dot" fill="#ffffff" opacity="0.07"></circle><circle cx="20.800000000000004" cy="29.6" r="1.35" class="kb-dot" fill="#ffffff" opacity="0.07"></circle><circle cx="26.400000000000006" cy="29.6" r="1.35" class="kb-dot" fill="#ffffff" opacity="0.07"></circle><circle cx="32" cy="29.6" r="1.35" class="kb-dot" fill="#ffffff" opacity="0.07"></circle><circle cx="37.6" cy="29.6" r="1.35" class="kb-dot" fill="#ffffff" opacity="0.07"></circle><circle cx="43.2" cy="29.6" r="1.35" class="kb-dot" fill="#ffffff" opacity="0.07"></circle><circle cx="48.800000000000004" cy="29.6" r="1.35" class="kb-dot" fill="#ffffff" opacity="0.07"></circle><circle cx="54.4" cy="29.6" r="1.35" class="kb-dot" fill="#ffffff" opacity="0.07"></circle><circle cx="60" cy="29.6" r="1.35" class="kb-dot" fill="#ffffff" opacity="0.07"></circle><circle cx="65.6" cy="29.6" r="1.35" class="kb-dot" fill="#ffffff" opacity="0.07"></circle><circle cx="71.2" cy="29.6" r="1.35" class="kb-dot" fill="#ffffff" opacity="0.07"></circle><circle cx="76.80000000000001" cy="29.6" r="1.35" class="kb-dot" fill="#ffffff" opacity="0.07"></circle><circle cx="82.4" cy="29.6" r="1.35" class="kb-dot" fill="#ffffff" opacity="0.07"></circle><circle cx="88" cy="29.6" r="1.35" class="kb-dot" fill="#ffffff" opacity="0.07"></circle><circle cx="93.6" cy="29.6" r="1.35" class="kb-dot" fill="#ffffff" opacity="0.07"></circle><circle cx="99.19999999999999" cy="29.6" r="1.35" class="kb-dot" fill="#ffffff" opacity="0.07"></circle><circle cx="20.800000000000004" cy="35.2" r="1.35" class="kb-dot" fill="#ffffff" opacity="0.07"></circle><circle cx="26.400000000000006" cy="35.2" r="1.35" class="kb-dot" fill="#ffffff" opacity="0.07"></circle><circle cx="32" cy="35.2" r="1.35" class="kb-dot" fill="#ffffff" opacity="0.07"></circle><circle cx="37.6" cy="35.2" r="1.35" class="kb-dot" fill="#ffffff" opacity="0.07"></circle><circle cx="43.2" cy="35.2" r="2.05" class="kb-dot is-on" fill="#f3f4ef" opacity="1"></circle><circle cx="48.800000000000004" cy="35.2" r="1.35" class="kb-dot" fill="#ffffff" opacity="0.07"></circle><circle cx="54.4" cy="35.2" r="1.35" class="kb-dot" fill="#ffffff" opacity="0.07"></circle><circle cx="60" cy="35.2" r="1.35" class="kb-dot" fill="#ffffff" opacity="0.07"></circle><circle cx="65.6" cy="35.2" r="1.35" class="kb-dot" fill="#ffffff" opacity="0.07"></circle><circle cx="71.2" cy="35.2" r="1.35" class="kb-dot" fill="#ffffff" opacity="0.07"></circle><circle cx="76.80000000000001" cy="35.2" r="1.35" class="kb-dot" fill="#ffffff" opacity="0.07"></circle><circle cx="82.4" cy="35.2" r="1.35" class="kb-dot" fill="#ffffff" opacity="0.07"></circle><circle cx="88" cy="35.2" r="1.35" class="kb-dot" fill="#ffffff" opacity="0.07"></circle><circle cx="93.6" cy="35.2" r="1.35" class="kb-dot" fill="#ffffff" opacity="0.07"></circle><circle cx="99.19999999999999" cy="35.2" r="1.35" class="kb-dot" fill="#ffffff" opacity="0.07"></circle><circle cx="20.800000000000004" cy="40.8" r="1.35" class="kb-dot" fill="#ffffff" opacity="0.07"></circle><circle cx="26.400000000000006" cy="40.8" r="1.35" class="kb-dot" fill="#ffffff" opacity="0.07"></circle><circle cx="32" cy="40.8" r="1.35" class="kb-dot" fill="#ffffff" opacity="0.07"></circle><circle cx="37.6" cy="40.8" r="2.05" class="kb-dot is-on" fill="#f3f4ef" opacity="1"></circle><circle cx="43.2" cy="40.8" r="2.05" class="kb-dot is-on" fill="#f3f4ef" opacity="1"></circle><circle cx="48.800000000000004" cy="40.8" r="2.05" class="kb-dot is-on" fill="#f3f4ef" opacity="1"></circle><circle cx="54.4" cy="40.8" r="1.35" class="kb-dot" fill="#ffffff" opacity="0.07"></circle><circle cx="60" cy="40.8" r="1.35" class="kb-dot" fill="#ffffff" opacity="0.07"></circle><circle cx="65.6" cy="40.8" r="1.35" class="kb-dot" fill="#ffffff" opacity="0.07"></circle><circle cx="71.2" cy="40.8" r="1.35" class="kb-dot" fill="#ffffff" opacity="0.07"></circle><circle cx="76.80000000000001" cy="40.8" r="1.35" class="kb-dot" fill="#ffffff" opacity="0.07"></circle><circle cx="82.4" cy="40.8" r="1.35" class="kb-dot" fill="#ffffff" opacity="0.07"></circle><circle cx="88" cy="40.8" r="1.35" class="kb-dot" fill="#ffffff" opacity="0.07"></circle><circle cx="93.6" cy="40.8" r="1.35" class="kb-dot" fill="#ffffff" opacity="0.07"></circle><circle cx="99.19999999999999" cy="40.8" r="1.35" class="kb-dot" fill="#ffffff" opacity="0.07"></circle><circle cx="20.800000000000004" cy="46.4" r="1.35" class="kb-dot" fill="#ffffff" opacity="0.07"></circle><circle cx="26.400000000000006" cy="46.4" r="1.35" class="kb-dot" fill="#ffffff" opacity="0.07"></circle><circle cx="32" cy="46.4" r="1.35" class="kb-dot" fill="#ffffff" opacity="0.07"></circle><circle cx="37.6" cy="46.4" r="2.05" class="kb-dot is-on" fill="#f3f4ef" opacity="1"></circle><circle cx="43.2" cy="46.4" r="2.05" class="kb-dot is-on" fill="#f3f4ef" opacity="1"></circle><circle cx="48.800000000000004" cy="46.4" r="2.05" class="kb-dot is-on" fill="#f3f4ef" opacity="1"></circle><circle cx="54.4" cy="46.4" r="1.35" class="kb-dot" fill="#ffffff" opacity="0.07"></circle><circle cx="60" cy="46.4" r="1.35" class="kb-dot" fill="#ffffff" opacity="0.07"></circle><circle cx="65.6" cy="46.4" r="1.35" class="kb-dot" fill="#ffffff" opacity="0.07"></circle><circle cx="71.2" cy="46.4" r="2.05" class="kb-dot is-on" fill="#f3f4ef" opacity="1"></circle><circle cx="76.80000000000001" cy="46.4" r="2.05" class="kb-dot is-on" fill="#f3f4ef" opacity="1"></circle><circle cx="82.4" cy="46.4" r="2.05" class="kb-dot is-on" fill="#f3f4ef" opacity="1"></circle><circle cx="88" cy="46.4" r="1.35" class="kb-dot" fill="#ffffff" opacity="0.07"></circle><circle cx="93.6" cy="46.4" r="1.35" class="kb-dot" fill="#ffffff" opacity="0.07"></circle><circle cx="99.19999999999999" cy="46.4" r="1.35" class="kb-dot" fill="#ffffff" opacity="0.07"></circle><circle cx="20.800000000000004" cy="52" r="1.35" class="kb-dot" fill="#ffffff" opacity="0.07"></circle><circle cx="26.400000000000006" cy="52" r="1.35" class="kb-dot" fill="#ffffff" opacity="0.07"></circle><circle cx="32" cy="52" r="1.35" class="kb-dot" fill="#ffffff" opacity="0.07"></circle><circle cx="37.6" cy="52" r="1.35" class="kb-dot" fill="#ffffff" opacity="0.07"></circle><circle cx="43.2" cy="52" r="2.05" class="kb-dot is-on" fill="#f3f4ef" opacity="1"></circle><circle cx="48.800000000000004" cy="52" r="1.35" class="kb-dot" fill="#ffffff" opacity="0.07"></circle><circle cx="54.4" cy="52" r="1.35" class="kb-dot" fill="#ffffff" opacity="0.07"></circle><circle cx="60" cy="52" r="1.35" class="kb-dot" fill="#ffffff" opacity="0.07"></circle><circle cx="65.6" cy="52" r="1.35" class="kb-dot" fill="#ffffff" opacity="0.07"></circle><circle cx="71.2" cy="52" r="1.35" class="kb-dot" fill="#ffffff" opacity="0.07"></circle><circle cx="76.80000000000001" cy="52" r="1.35" class="kb-dot" fill="#ffffff" opacity="0.07"></circle><circle cx="82.4" cy="52" r="1.35" class="kb-dot" fill="#ffffff" opacity="0.07"></circle><circle cx="88" cy="52" r="1.35" class="kb-dot" fill="#ffffff" opacity="0.07"></circle><circle cx="93.6" cy="52" r="1.35" class="kb-dot" fill="#ffffff" opacity="0.07"></circle><circle cx="99.19999999999999" cy="52" r="1.35" class="kb-dot" fill="#ffffff" opacity="0.07"></circle><circle cx="20.800000000000004" cy="57.599999999999994" r="1.35" class="kb-dot" fill="#ffffff" opacity="0.07"></circle><circle cx="26.400000000000006" cy="57.599999999999994" r="1.35" class="kb-dot" fill="#ffffff" opacity="0.07"></circle><circle cx="32" cy="57.599999999999994" r="1.35" class="kb-dot" fill="#ffffff" opacity="0.07"></circle><circle cx="37.6" cy="57.599999999999994" r="1.35" class="kb-dot" fill="#ffffff" opacity="0.07"></circle><circle cx="43.2" cy="57.599999999999994" r="1.35" class="kb-dot" fill="#ffffff" opacity="0.07"></circle><circle cx="48.800000000000004" cy="57.599999999999994" r="1.35" class="kb-dot" fill="#ffffff" opacity="0.07"></circle><circle cx="54.4" cy="57.599999999999994" r="1.35" class="kb-dot" fill="#ffffff" opacity="0.07"></circle><circle cx="60" cy="57.599999999999994" r="1.35" class="kb-dot" fill="#ffffff" opacity="0.07"></circle><circle cx="65.6" cy="57.599999999999994" r="1.35" class="kb-dot" fill="#ffffff" opacity="0.07"></circle><circle cx="71.2" cy="57.599999999999994" r="1.35" class="kb-dot" fill="#ffffff" opacity="0.07"></circle><circle cx="76.80000000000001" cy="57.599999999999994" r="1.35" class="kb-dot" fill="#ffffff" opacity="0.07"></circle><circle cx="82.4" cy="57.599999999999994" r="1.35" class="kb-dot" fill="#ffffff" opacity="0.07"></circle><circle cx="88" cy="57.599999999999994" r="1.35" class="kb-dot" fill="#ffffff" opacity="0.07"></circle><circle cx="93.6" cy="57.599999999999994" r="1.35" class="kb-dot" fill="#ffffff" opacity="0.07"></circle><circle cx="99.19999999999999" cy="57.599999999999994" r="1.35" class="kb-dot" fill="#ffffff" opacity="0.07"></circle><circle cx="20.800000000000004" cy="63.199999999999996" r="1.35" class="kb-dot" fill="#ffffff" opacity="0.07"></circle><circle cx="26.400000000000006" cy="63.199999999999996" r="1.35" class="kb-dot" fill="#ffffff" opacity="0.07"></circle><circle cx="32" cy="63.199999999999996" r="1.35" class="kb-dot" fill="#ffffff" opacity="0.07"></circle><circle cx="37.6" cy="63.199999999999996" r="1.35" class="kb-dot" fill="#ffffff" opacity="0.07"></circle><circle cx="43.2" cy="63.199999999999996" r="1.35" class="kb-dot" fill="#ffffff" opacity="0.07"></circle><circle cx="48.800000000000004" cy="63.199999999999996" r="1.35" class="kb-dot" fill="#ffffff" opacity="0.07"></circle><circle cx="54.4" cy="63.199999999999996" r="1.35" class="kb-dot" fill="#ffffff" opacity="0.07"></circle><circle cx="60" cy="63.199999999999996" r="1.35" class="kb-dot" fill="#ffffff" opacity="0.07"></circle><circle cx="65.6" cy="63.199999999999996" r="1.35" class="kb-dot" fill="#ffffff" opacity="0.07"></circle><circle cx="71.2" cy="63.199999999999996" r="1.35" class="kb-dot" fill="#ffffff" opacity="0.07"></circle><circle cx="76.80000000000001" cy="63.199999999999996" r="1.35" class="kb-dot" fill="#ffffff" opacity="0.07"></circle><circle cx="82.4" cy="63.199999999999996" r="1.35" class="kb-dot" fill="#ffffff" opacity="0.07"></circle><circle cx="88" cy="63.199999999999996" r="1.35" class="kb-dot" fill="#ffffff" opacity="0.07"></circle><circle cx="93.6" cy="63.199999999999996" r="1.35" class="kb-dot" fill="#ffffff" opacity="0.07"></circle><circle cx="99.19999999999999" cy="63.199999999999996" r="1.35" class="kb-dot" fill="#ffffff" opacity="0.07"></circle><circle cx="20.800000000000004" cy="68.8" r="1.35" class="kb-dot" fill="#ffffff" opacity="0.07"></circle><circle cx="26.400000000000006" cy="68.8" r="1.35" class="kb-dot" fill="#ffffff" opacity="0.07"></circle><circle cx="32" cy="68.8" r="1.35" class="kb-dot" fill="#ffffff" opacity="0.07"></circle><circle cx="37.6" cy="68.8" r="1.35" class="kb-dot" fill="#ffffff" opacity="0.07"></circle><circle cx="43.2" cy="68.8" r="1.35" class="kb-dot" fill="#ffffff" opacity="0.07"></circle><circle cx="48.800000000000004" cy="68.8" r="1.35" class="kb-dot" fill="#ffffff" opacity="0.07"></circle><circle cx="54.4" cy="68.8" r="1.35" class="kb-dot" fill="#ffffff" opacity="0.07"></circle><circle cx="60" cy="68.8" r="1.35" class="kb-dot" fill="#ffffff" opacity="0.07"></circle><circle cx="65.6" cy="68.8" r="2.05" class="kb-dot is-on" fill="#f3f4ef" opacity="1"></circle><circle cx="71.2" cy="68.8" r="2.05" class="kb-dot is-on" fill="#f3f4ef" opacity="1"></circle><circle cx="76.80000000000001" cy="68.8" r="1.35" class="kb-dot" fill="#ffffff" opacity="0.07"></circle><circle cx="82.4" cy="68.8" r="1.35" class="kb-dot" fill="#ffffff" opacity="0.07"></circle><circle cx="88" cy="68.8" r="1.35" class="kb-dot" fill="#ffffff" opacity="0.07"></circle><circle cx="93.6" cy="68.8" r="1.35" class="kb-dot" fill="#ffffff" opacity="0.07"></circle><circle cx="99.19999999999999" cy="68.8" r="1.35" class="kb-dot" fill="#ffffff" opacity="0.07"></circle><circle cx="20.800000000000004" cy="74.4" r="1.35" class="kb-dot" fill="#ffffff" opacity="0.07"></circle><circle cx="26.400000000000006" cy="74.4" r="1.35" class="kb-dot" fill="#ffffff" opacity="0.07"></circle><circle cx="32" cy="74.4" r="1.35" class="kb-dot" fill="#ffffff" opacity="0.07"></circle><circle cx="37.6" cy="74.4" r="1.35" class="kb-dot" fill="#ffffff" opacity="0.07"></circle><circle cx="43.2" cy="74.4" r="1.35" class="kb-dot" fill="#ffffff" opacity="0.07"></circle><circle cx="48.800000000000004" cy="74.4" r="1.35" class="kb-dot" fill="#ffffff" opacity="0.07"></circle><circle cx="54.4" cy="74.4" r="2.05" class="kb-dot is-on" fill="#f3f4ef" opacity="1"></circle><circle cx="60" cy="74.4" r="2.05" class="kb-dot is-on" fill="#f3f4ef" opacity="1"></circle><circle cx="65.6" cy="74.4" r="1.35" class="kb-dot" fill="#ffffff" opacity="0.07"></circle><circle cx="71.2" cy="74.4" r="1.35" class="kb-dot" fill="#ffffff" opacity="0.07"></circle><circle cx="76.80000000000001" cy="74.4" r="1.35" class="kb-dot" fill="#ffffff" opacity="0.07"></circle><circle cx="82.4" cy="74.4" r="1.35" class="kb-dot" fill="#ffffff" opacity="0.07"></circle><circle cx="88" cy="74.4" r="1.35" class="kb-dot" fill="#ffffff" opacity="0.07"></circle><circle cx="93.6" cy="74.4" r="1.35" class="kb-dot" fill="#ffffff" opacity="0.07"></circle><circle cx="99.19999999999999" cy="74.4" r="1.35" class="kb-dot" fill="#ffffff" opacity="0.07"></circle><circle cx="20.800000000000004" cy="80" r="1.35" class="kb-dot" fill="#ffffff" opacity="0.07"></circle><circle cx="26.400000000000006" cy="80" r="1.35" class="kb-dot" fill="#ffffff" opacity="0.07"></circle><circle cx="32" cy="80" r="1.35" class="kb-dot" fill="#ffffff" opacity="0.07"></circle><circle cx="37.6" cy="80" r="1.35" class="kb-dot" fill="#ffffff" opacity="0.07"></circle><circle cx="43.2" cy="80" r="1.35" class="kb-dot" fill="#ffffff" opacity="0.07"></circle><circle cx="48.800000000000004" cy="80" r="1.35" class="kb-dot" fill="#ffffff" opacity="0.07"></circle><circle cx="54.4" cy="80" r="1.35" class="kb-dot" fill="#ffffff" opacity="0.07"></circle><circle cx="60" cy="80" r="1.35" class="kb-dot" fill="#ffffff" opacity="0.07"></circle><circle cx="65.6" cy="80" r="1.35" class="kb-dot" fill="#ffffff" opacity="0.07"></circle><circle cx="71.2" cy="80" r="1.35" class="kb-dot" fill="#ffffff" opacity="0.07"></circle><circle cx="76.80000000000001" cy="80" r="1.35" class="kb-dot" fill="#ffffff" opacity="0.07"></circle><circle cx="82.4" cy="80" r="1.35" class="kb-dot" fill="#ffffff" opacity="0.07"></circle><circle cx="88" cy="80" r="1.35" class="kb-dot" fill="#ffffff" opacity="0.07"></circle><circle cx="93.6" cy="80" r="1.35" class="kb-dot" fill="#ffffff" opacity="0.07"></circle><circle cx="99.19999999999999" cy="80" r="1.35" class="kb-dot" fill="#ffffff" opacity="0.07"></circle></g><circle class="kb-led" cx="98" cy="22" r="1.8" fill="#d4ff3a"></circle></g></svg>